<?xml version="1.0" encoding="UTF-8" standalone="no"?>
<!-- Generator: Adobe Illustrator 9.0.1, SVG Export Plug-In  -->
<svg
   xmlns:dc="http://purl.org/dc/elements/1.1/"
   xmlns:cc="http://web.resource.org/cc/"
   xmlns:rdf="http://www.w3.org/1999/02/22-rdf-syntax-ns#"
   xmlns:svg="http://www.w3.org/2000/svg"
   xmlns="http://www.w3.org/2000/svg"
   xmlns:sodipodi="http://sodipodi.sourceforge.net/DTD/sodipodi-0.dtd"
   xmlns:inkscape="http://www.inkscape.org/namespaces/inkscape"
   width="164.584pt"
   height="174.545pt"
   viewBox="0 0 164.584 174.545"
   xml:space="preserve"
   id="svg2277"
   sodipodi:version="0.32"
   inkscape:version="0.45.1"
   sodipodi:docname="twistedlogo-cleanedup.svg"
   sodipodi:docbase="/home/glyph/Network/legion/home/glyph/Archive/Pictures/Logos/Twisted"
   inkscape:output_extension="org.inkscape.output.svg.inkscape"><metadata
   id="metadata2323"><rdf:RDF><cc:Work
       rdf:about=""><dc:format>image/svg+xml</dc:format><dc:type
         rdf:resource="http://purl.org/dc/dcmitype/StillImage" /></cc:Work></rdf:RDF></metadata><defs
   id="defs2321">
		
		
		
		
		
		
		
		
	
			
			
			
			
			
		</defs><sodipodi:namedview
   inkscape:window-height="1123"
   inkscape:window-width="1920"
   inkscape:pageshadow="2"
   inkscape:pageopacity="0.0"
   guidetolerance="10.0"
   gridtolerance="10.0"
   objecttolerance="10.0"
   borderopacity="1.0"
   bordercolor="#666666"
   pagecolor="#ffffff"
   id="base"
   inkscape:zoom="4.193761"
   inkscape:cx="102.865"
   inkscape:cy="128.16658"
   inkscape:window-x="0"
   inkscape:window-y="49"
   inkscape:current-layer="svg2277" />
	<path
   style="fill-rule:nonzero;stroke:none;stroke-miterlimit:4;fill:#000000;fill-opacity:1"
   d="M 102.09375 0 L 47.90625 40 L 84.65625 67.09375 L 88.03125 69.53125 L 87.96875 69.5625 L 91.625 72.25 L 135.03125 40.125 L 101.3125 15.25 L 68.125 39.84375 L 91.625 57.15625 L 115.25 39.5625 L 101.6875 29.5625 L 101.6875 26.78125 L 101.75 26.6875 L 117.875 38.625 L 119.125 39.5625 L 117.875 40.5 L 92.375 59.53125 L 91.6875 60.03125 L 90.96875 59.53125 L 65.46875 40.78125 L 64.1875 39.84375 L 65.4375 38.90625 L 100.59375 12.84375 L 101.28125 12.34375 L 102 12.84375 L 137.65625 39.1875 L 138.9375 40.125 L 137.6875 41.0625 L 92.375 74.65625 L 91.6875 75.15625 L 90.96875 74.65625 L 85.96875 70.96875 L 82.34375 73.46875 L 77.3125 77.28125 L 91.09375 87.6875 L 156.125 39.5 L 102.09375 0 z "
   transform="scale(0.8,0.8)"
   id="path2280" /><path
   id="path2302"
   d="M 71.519,35.4 L 71.613,33.431 L 67.3,31.369 L 67.3,32.307 L 71.519,35.401 L 71.519,35.4 z "
   style="fill:#ffffff;fill-rule:nonzero;stroke:none;stroke-miterlimit:4" /><path
   id="path2300"
   d="M 75.409,35.4 L 75.315,33.431 L 79.627,31.369 L 79.627,32.307 L 75.409,35.4 z "
   style="fill:#ffffff;fill-rule:nonzero;stroke:none;stroke-miterlimit:4" /><path
   style="fill-rule:nonzero;stroke:none;stroke-miterlimit:4;fill:#000000;fill-opacity:1;opacity:0.75"
   d="M 144.34375,51.1875 L 134.09375,58.78125 L 156.4375,76.1875 L 157.65625,77.125 L 156.4375,78 L 91.0625,126.4375 L 90.34375,127 L 89.65625,126.4375 L 74.25,115 L 62.375,123.71875 L 89.8125,144.125 L 179.6875,77.59375 L 144.34375,51.1875 z M 61,52.5625 L 60.9375,52.59375 L 27.09375,77.09375 L 35.5625,83.40625 L 90.34375,124.0625 L 153.78125,77.0625 L 132.15625,60.21875 L 91.71875,90.125 L 91,90.65625 L 90.3125,90.125 L 74.5625,78.28125 L 73.3125,77.34375 L 74.5625,76.40625 L 83.84375,69.40625 L 61,52.5625 z "
   id="path2282"
   sodipodi:nodetypes="cccccccccccccccccccccccccccc"
   transform="scale(0.8,0.8)" /><path
   style="fill-rule:nonzero;stroke:none;stroke-miterlimit:4;fill:#000000;fill-opacity:1;opacity:0.5"
   d="M 43.34375,92.09375 L 6.8345798e-23,123.96875 L 86.09375,187.4375 L 172.375,123.5625 L 147.0625,104.71875 L 90.5625,146.53125 L 89.84375,147.03125 L 89.125,146.53125 L 59.71875,124.65625 L 58.4375,123.71875 L 59.71875,122.75 L 72.21875,113.5 L 43.34375,92.09375 z M 162.84375,93.0625 L 149.03125,103.28125 L 175.03125,122.625 L 176.3125,123.5625 L 175.03125,124.5 L 88.09375,188.90625 L 103.125,200 L 205.71875,124.46875 L 162.84375,93.0625 z "
   id="path2284"
   sodipodi:nodetypes="cccccccccccccccccccccc"
   transform="scale(0.8,0.8)" />
</svg>